<?xml version="1.0" standalone="no"?>
<!DOCTYPE svg PUBLIC "-//W3C//DTD SVG 20010904//EN"
 "http://www.w3.org/TR/2001/REC-SVG-20010904/DTD/svg10.dtd">
<svg version="1.0" xmlns="http://www.w3.org/2000/svg"
 width="1440.000000pt" height="1600.000000pt" viewBox="0 0 1440.000000 1600.000000"
 preserveAspectRatio="xMidYMid meet">

<g transform="translate(0.000000,1600.000000) scale(0.100000,-0.100000)"
fill="currentColor" stroke="none">
<path d="M6888 15973 c-9 -10 -21 -36 -28 -58 -7 -22 -48 -114 -91 -205 -134
-287 -189 -470 -189 -635 0 -251 55 -502 180 -815 73 -182 126 -285 242 -466
63 -98 123 -195 134 -214 54 -103 11 -592 -89 -1020 l-13 -55 -28 120 c-40
168 -79 271 -143 372 -151 242 -282 376 -736 755 -388 323 -392 326 -441 273
-27 -29 -69 -133 -93 -229 -14 -58 -15 -82 -6 -160 27 -223 134 -586 223 -752
87 -164 295 -458 382 -540 23 -23 103 -87 177 -143 176 -134 339 -217 458
-234 l82 -12 -60 -180 c-32 -99 -80 -247 -105 -330 -63 -207 -167 -492 -292
-800 -57 -143 -124 -311 -149 -374 -24 -63 -85 -204 -137 -315 -51 -111 -115
-250 -141 -311 -121 -281 -286 -582 -533 -970 -169 -266 -474 -726 -478 -722
-2 2 29 77 70 168 105 235 131 306 250 664 118 358 155 487 190 654 l23 114
51 13 c67 17 130 50 217 112 87 62 108 82 171 157 163 195 215 321 215 518 0
119 -19 195 -62 249 -16 20 -29 42 -29 47 0 6 -7 11 -15 11 -8 0 -15 -4 -15
-8 0 -5 -30 -31 -66 -57 -122 -90 -181 -170 -352 -479 l-61 -109 -3 224 -3
224 37 42 c53 59 135 229 158 326 38 158 22 361 -41 513 -50 120 -154 309
-215 391 -66 88 -192 215 -274 277 -83 64 -222 144 -313 182 -88 36 -103 39
-112 24 -12 -19 26 -406 60 -603 43 -258 61 -324 135 -512 98 -246 228 -424
408 -560 48 -36 92 -65 98 -65 16 0 27 -257 19 -434 -6 -134 -21 -243 -32
-232 -3 3 -24 49 -47 103 -72 168 -148 267 -293 384 -95 75 -213 139 -342 183
-100 35 -269 72 -279 61 -3 -3 0 -29 7 -57 6 -29 18 -89 27 -133 9 -43 25 -97
36 -120 43 -83 125 -193 216 -290 52 -55 129 -136 171 -180 53 -56 94 -89 136
-109 84 -41 239 -86 297 -86 38 0 48 -3 48 -16 0 -15 -15 -85 -57 -269 -41
-177 -260 -759 -385 -1020 -50 -104 -111 -232 -135 -283 -25 -51 -47 -92 -49
-89 -2 2 5 44 16 93 11 49 20 125 20 169 0 44 7 121 16 170 9 54 18 206 23
380 7 237 12 300 27 343 25 72 16 79 -76 58 -81 -18 -247 -85 -302 -121 -21
-14 -41 -25 -46 -25 -4 0 -24 16 -43 36 -48 50 -110 92 -181 121 -66 26 -81
24 -53 -7 18 -20 18 -24 1 -131 -10 -61 -20 -161 -23 -222 -5 -88 -10 -118
-25 -139 -98 -141 -156 -430 -145 -733 6 -155 39 -396 72 -525 8 -30 28 -115
44 -189 18 -77 41 -151 55 -175 l25 -43 -385 -384 c-496 -494 -729 -735 -925
-957 -143 -160 -323 -346 -326 -335 -3 9 71 457 111 668 13 72 32 197 42 278
20 175 -1 154 225 223 264 79 479 175 626 276 104 72 250 228 290 308 97 199
102 521 12 822 -22 75 -38 85 -71 43 -10 -13 -70 -58 -131 -99 -144 -95 -324
-251 -407 -352 -104 -126 -345 -496 -413 -636 -34 -70 -64 -127 -67 -127 -3
-1 0 47 6 107 24 209 65 760 72 967 5 122 13 219 19 231 7 11 31 26 54 33 81
25 305 129 409 191 252 151 359 262 529 550 125 211 170 351 178 555 4 105 1
155 -17 260 -49 297 -183 817 -211 823 -8 1 -27 -23 -47 -63 -19 -35 -87 -129
-153 -207 -238 -285 -367 -493 -481 -776 -48 -121 -170 -491 -218 -662 -24
-85 -47 -159 -50 -163 -4 -4 -10 68 -13 160 -8 215 -29 399 -74 638 -20 105
-38 204 -40 220 -3 22 7 52 41 112 92 166 148 309 167 423 13 81 13 278 -1
385 -15 118 -65 280 -124 397 -89 179 -188 345 -261 435 -76 95 -303 301 -430
391 -44 31 -107 77 -140 102 -33 25 -77 54 -97 64 -49 27 -63 13 -72 -68 -3
-35 -21 -137 -40 -227 -70 -340 -73 -531 -13 -734 20 -66 50 -153 67 -194 62
-151 243 -441 387 -621 73 -91 108 -128 305 -317 70 -67 133 -135 141 -150 36
-70 85 -334 111 -593 13 -131 26 -430 19 -430 -1 0 -27 48 -57 108 -81 157
-130 227 -227 324 -178 177 -351 290 -729 475 -511 251 -579 283 -598 283 -28
0 -60 -35 -74 -83 -6 -23 -12 -100 -12 -172 l-1 -130 43 -105 c45 -111 158
-323 217 -409 19 -28 35 -53 35 -57 0 -19 101 -143 192 -235 108 -110 313
-286 401 -344 69 -45 332 -161 432 -191 135 -39 243 -54 315 -44 36 5 66 7 69
4 2 -2 -1 -70 -7 -152 -7 -81 -19 -248 -27 -372 -19 -281 -54 -596 -100 -906
-20 -131 -42 -291 -50 -354 -9 -63 -34 -207 -56 -320 -23 -113 -52 -263 -64
-335 -21 -122 -23 -126 -24 -68 -1 34 -10 109 -21 166 -20 104 -20 105 -1 150
46 108 71 207 71 287 0 179 -58 343 -149 419 l-49 41 -23 -32 c-13 -18 -43
-57 -66 -86 -24 -29 -55 -75 -68 -103 l-26 -50 -62 56 c-34 31 -75 64 -90 73
-23 14 -27 22 -22 42 56 219 -2 485 -148 680 -68 91 -203 242 -254 286 -193
164 -429 282 -656 328 -114 23 -171 24 -175 4 -5 -25 102 -343 170 -503 176
-419 347 -668 576 -840 90 -67 271 -163 325 -172 32 -5 33 -6 65 -117 18 -61
32 -119 32 -129 0 -16 -57 -203 -67 -220 -2 -4 -33 18 -68 50 -127 114 -321
203 -521 238 -105 19 -360 23 -377 6 -9 -9 -8 -17 1 -31 21 -34 30 -52 72
-145 36 -78 52 -100 128 -173 48 -46 109 -98 137 -115 27 -18 106 -70 175
-116 143 -96 225 -137 288 -147 l44 -7 -6 -41 c-16 -103 -18 -222 -7 -304 31
-217 54 -293 122 -405 l40 -68 -47 -62 c-26 -34 -82 -106 -123 -161 l-75 -99
-24 29 c-54 66 -126 136 -185 181 -85 65 -256 168 -324 193 -55 20 -173 39
-173 26 0 -3 8 -14 19 -25 14 -14 20 -40 25 -107 15 -196 81 -478 153 -658 20
-50 42 -113 49 -141 15 -56 19 -47 -69 -160 -266 -339 -733 -1083 -938 -1495
-47 -96 -119 -230 -158 -297 -62 -107 -71 -129 -71 -172 0 -61 26 -121 52
-121 28 0 102 74 150 149 23 36 103 185 178 331 198 384 388 701 706 1180 90
135 176 260 192 279 l29 34 23 -64 c34 -92 136 -296 178 -354 20 -27 63 -78
95 -111 l58 -62 -46 -123 c-84 -222 -97 -250 -274 -604 -97 -193 -200 -401
-229 -463 -122 -255 -270 -509 -507 -867 -84 -126 -186 -273 -227 -325 -155
-196 -221 -312 -203 -357 4 -12 14 -14 41 -10 53 9 77 28 130 109 27 40 82
115 123 168 150 191 424 613 580 893 44 78 161 316 219 442 32 72 99 211 149
309 l91 179 108 2 c93 1 123 6 199 32 50 17 106 38 125 48 91 46 213 140 344
265 203 194 318 273 385 262 91 -13 -44 71 -164 104 -35 9 -121 18 -206 21
-223 8 -345 -26 -477 -136 -34 -28 -62 -50 -62 -47 0 9 120 326 180 475 34 84
72 181 84 215 13 33 39 104 59 156 19 52 63 176 97 275 34 99 72 209 85 245
13 36 40 113 61 173 l37 107 36 0 c50 0 388 82 496 120 181 65 345 162 448
266 42 42 72 85 104 152 25 50 50 92 57 92 66 0 371 50 521 85 55 13 164 29
242 34 175 14 262 25 418 57 197 40 381 92 531 150 153 58 172 62 208 38 44
-28 38 3 -12 78 -71 104 -140 169 -282 263 -248 165 -408 241 -605 288 -123
29 -454 31 -585 4 -127 -27 -213 -54 -299 -94 -121 -56 -143 -65 -137 -54 11
18 651 508 763 585 209 142 345 221 443 255 115 41 163 64 303 148 209 125
370 187 430 165 54 -21 50 3 -9 56 -50 45 -55 52 -38 59 10 4 82 35 159 69
l140 63 17 -71 c20 -78 103 -242 182 -357 65 -96 141 -157 312 -255 77 -44
187 -110 246 -148 102 -66 222 -125 382 -185 68 -26 80 -27 300 -31 l229 -4
-7 37 c-10 54 -68 184 -130 294 -208 368 -501 626 -842 740 -65 21 -296 71
-333 71 -11 0 -21 4 -21 8 0 37 413 148 769 207 171 29 181 30 181 11 0 -20
126 -132 245 -217 150 -106 347 -201 530 -255 140 -41 475 -92 645 -99 171 -8
653 16 830 39 58 8 161 22 230 31 182 23 194 26 198 51 5 32 -121 212 -242
345 -263 291 -600 496 -988 600 -257 70 -313 80 -473 86 -161 6 -280 -10 -425
-58 -201 -65 -491 -274 -565 -405 l-21 -37 -165 -28 c-91 -15 -239 -45 -330
-67 l-164 -40 39 32 c121 95 417 363 494 444 75 79 127 159 180 271 24 53 53
108 63 123 23 31 24 48 4 48 -8 0 -42 14 -76 31 -110 56 -297 52 -493 -12
-173 -57 -236 -97 -391 -254 -173 -174 -257 -290 -326 -450 -73 -168 -89 -226
-97 -339 l-7 -99 -80 -34 c-44 -18 -124 -55 -178 -80 l-98 -47 -92 32 c-178
61 -250 74 -377 70 l-114 -4 89 84 c273 256 546 479 855 697 69 49 233 171
365 271 132 100 332 242 445 317 113 74 309 206 435 292 387 263 761 496 1110
690 77 43 226 128 330 190 105 61 215 126 247 143 l56 32 31 -93 c33 -99 69
-159 168 -284 95 -119 154 -178 326 -326 238 -206 281 -234 543 -353 363 -164
664 -263 850 -278 40 -3 103 -10 140 -15 128 -18 468 -33 589 -26 245 14 343
44 517 159 109 72 158 124 158 169 -1 50 -18 70 -126 154 -55 43 -214 168
-353 278 -545 430 -582 458 -725 550 -303 195 -634 340 -866 381 -55 10 -183
19 -304 23 l-209 6 169 79 c218 101 619 249 856 315 115 32 355 81 397 81 53
0 111 -19 396 -127 331 -126 569 -187 902 -232 468 -64 768 -56 1126 30 185
45 449 198 794 461 101 76 209 154 241 172 68 40 95 68 90 92 -5 26 -90 88
-193 140 -49 25 -146 77 -215 114 -135 75 -462 216 -630 273 -212 71 -383 93
-807 104 -237 6 -356 -5 -548 -49 -186 -43 -472 -169 -631 -280 -71 -48 -226
-197 -281 -270 -151 -198 -203 -268 -216 -294 -13 -26 -26 -34 -69 -44 -29 -7
-165 -43 -303 -81 -375 -102 -626 -190 -961 -339 -87 -38 -159 -68 -161 -66
-2 1 16 18 40 36 198 158 788 728 963 930 263 306 453 613 638 1037 77 177
128 270 198 360 39 51 45 83 15 83 -8 0 -117 -18 -243 -40 -379 -67 -942 -203
-1104 -267 -119 -47 -284 -131 -359 -184 -98 -69 -249 -215 -326 -314 -182
-236 -355 -541 -425 -753 -75 -226 -106 -537 -90 -891 6 -124 13 -238 16 -252
11 -51 -19 -85 -119 -135 -289 -145 -1138 -632 -1427 -819 -52 -33 -102 -65
-110 -70 -17 -10 -8 2 101 136 88 110 150 201 244 359 37 63 103 171 145 240
106 172 190 333 244 470 65 165 141 468 172 689 17 122 32 198 45 223 28 55
14 71 -56 63 l-52 -7 13 79 c7 43 13 147 13 231 1 169 -4 181 -56 143 -15 -11
-82 -40 -148 -64 -232 -85 -434 -199 -595 -338 -154 -132 -394 -366 -465 -452
-38 -47 -71 -85 -72 -83 -1 1 13 43 31 92 63 169 254 759 307 944 28 102 59
192 68 201 10 10 75 25 185 43 313 51 567 144 731 268 94 71 272 245 352 343
38 47 87 125 119 190 98 199 124 381 124 866 0 279 -7 419 -21 419 -5 0 -39
-31 -76 -68 -38 -38 -120 -106 -183 -151 -288 -206 -474 -390 -657 -646 -81
-114 -257 -395 -353 -563 -49 -86 -94 -164 -99 -172 -5 -8 4 50 20 130 53 261
73 422 89 728 l11 193 95 107 c209 233 274 371 319 677 28 189 12 336 -66 621
-75 276 -109 349 -278 592 -114 165 -349 442 -375 442 -7 0 -20 -8 -28 -17z
m100 -118 c25 -33 76 -94 113 -135 102 -115 254 -334 309 -445 52 -105 111
-287 131 -401 18 -105 6 -454 -20 -576 -44 -205 -130 -402 -239 -551 l-57 -78
-7 178 c-26 670 -52 988 -103 1243 -46 233 -57 285 -66 304 -11 25 -9 -8 14
-189 26 -204 36 -309 62 -645 41 -529 50 -880 22 -807 -4 10 -49 82 -100 160
-119 179 -171 272 -247 436 -117 254 -166 440 -176 676 l-6 140 46 157 c26 90
74 220 112 305 67 150 116 263 128 297 8 24 22 12 84 -69z m1459 -2177 c-4
-194 -11 -396 -16 -448 -45 -438 -242 -699 -711 -943 -161 -84 -317 -138 -469
-163 -53 -8 -118 -19 -146 -24 -27 -4 -51 -7 -53 -5 -4 3 75 68 263 216 202
159 475 451 590 628 100 156 165 322 180 464 10 94 -8 86 -34 -15 -86 -329
-188 -490 -528 -835 -92 -93 -437 -385 -475 -401 -4 -2 4 27 18 65 127 346
176 446 377 773 220 358 432 592 762 841 94 70 186 144 204 163 19 20 37 36
39 36 3 0 2 -159 -1 -352z m-2620 279 c106 -98 273 -241 453 -388 391 -318
521 -502 623 -877 29 -109 32 -128 32 -282 0 -91 -4 -201 -9 -245 l-8 -80 -30
35 c-16 19 -73 96 -126 170 -52 74 -130 182 -173 240 -43 58 -124 182 -181
275 -215 351 -460 725 -474 725 -11 0 97 -193 205 -365 63 -99 161 -256 218
-350 57 -93 128 -201 156 -240 28 -38 98 -135 155 -215 57 -80 131 -178 163
-217 l59 -72 -33 5 c-82 14 -164 51 -301 134 -169 102 -243 160 -378 297 -270
274 -392 477 -484 810 -48 174 -78 354 -70 424 6 57 57 217 82 257 23 35 49
26 121 -41z m5310 -1279 c-49 -70 -102 -170 -157 -293 -130 -294 -232 -479
-401 -730 -124 -183 -274 -361 -484 -571 -417 -418 -668 -621 -1059 -856 -71
-43 -130 -78 -132 -78 -2 0 16 33 38 73 23 39 70 131 104 203 148 310 278 526
500 824 267 359 430 503 761 671 144 73 182 99 150 99 -75 0 -272 -88 -417
-185 -192 -130 -324 -264 -544 -555 -241 -319 -304 -425 -527 -875 l-134 -270
-12 120 c-21 219 -13 464 22 676 36 212 184 635 288 821 88 157 242 333 392
446 117 89 363 204 550 257 329 93 963 240 1054 244 22 1 23 0 8 -21z m-6177
-538 c188 -95 304 -176 430 -301 197 -198 328 -479 347 -746 9 -134 -19 -255
-95 -408 -16 -33 -33 -70 -36 -82 -13 -43 -22 -23 -34 81 -14 114 -81 393
-134 556 -32 96 -168 413 -175 406 -2 -1 19 -59 46 -127 79 -200 127 -372 183
-644 23 -113 48 -278 42 -284 -6 -6 -88 59 -153 122 -162 157 -292 358 -355
547 -70 211 -128 507 -146 747 -5 78 -13 149 -16 157 -9 24 9 20 96 -24z
m-2890 -415 c36 -29 94 -71 129 -95 102 -68 334 -273 394 -347 114 -141 221
-338 261 -479 58 -209 71 -296 71 -504 0 -164 -4 -213 -23 -309 -13 -62 -29
-123 -36 -135 -7 -11 -26 -56 -42 -98 -16 -43 -31 -78 -34 -78 -3 0 -23 69
-44 153 -40 155 -120 428 -181 617 -19 58 -39 125 -45 150 -25 96 -250 624
-298 698 -29 45 -22 13 22 -94 135 -330 476 -1395 464 -1449 -4 -20 -281 236
-384 356 -258 299 -379 512 -451 789 -23 88 -24 106 -18 245 7 149 26 289 65
479 11 54 20 115 20 135 0 65 8 63 130 -34z m10884 -66 c149 -15 255 -36 364
-70 138 -45 477 -195 614 -272 64 -37 167 -91 230 -122 62 -31 124 -64 136
-74 l24 -18 -64 -39 c-34 -22 -151 -105 -258 -185 -198 -148 -277 -203 -295
-206 -5 -1 -50 -26 -100 -56 -154 -93 -292 -155 -390 -177 -307 -66 -668 -67
-986 -1 -318 66 -534 131 -843 255 -103 42 -207 81 -230 87 l-41 12 35 9 c160
42 578 113 960 162 113 15 279 38 370 51 91 14 228 32 305 40 405 44 520 55
587 56 40 0 93 4 118 8 100 17 -16 23 -328 18 -428 -7 -614 -21 -917 -71 -49
-8 -144 -22 -210 -31 -212 -28 -544 -84 -778 -131 -125 -25 -232 -44 -237 -42
-5 2 33 50 85 106 52 57 95 107 95 111 0 13 158 134 275 211 229 151 434 237
746 314 314 78 423 86 733 55z m-5087 -181 c-3 -79 -11 -171 -17 -205 l-12
-62 -95 -22 c-53 -11 -134 -34 -182 -49 -47 -16 -88 -27 -90 -25 -2 2 39 45
90 96 56 55 89 94 81 96 -16 6 -91 -52 -208 -160 -66 -61 -118 -98 -183 -132
-120 -62 -244 -146 -332 -224 -64 -58 -83 -69 -192 -108 -66 -24 -122 -42
-124 -39 -4 4 129 176 190 246 114 129 286 295 402 387 143 115 315 210 500
277 55 20 114 43 130 51 17 7 34 14 39 14 5 1 6 -60 3 -141z m39 -350 c-3 -18
-15 -99 -25 -180 -23 -169 -78 -417 -126 -565 -53 -161 -218 -476 -367 -701
-72 -109 -151 -223 -177 -255 -133 -169 -302 -369 -307 -365 -5 6 63 463 81
546 34 152 153 397 370 762 110 185 202 366 191 377 -13 13 -62 -52 -181 -237
-391 -611 -495 -815 -560 -1100 -20 -89 -31 -120 -44 -120 -33 0 -89 565 -76
770 20 308 109 530 277 685 207 192 551 343 947 414 2 1 1 -14 -3 -31z m-1750
-672 c18 -106 8 -239 -27 -330 -24 -66 -103 -189 -160 -251 -46 -50 -142 -117
-234 -163 -108 -53 -115 -52 -56 14 118 132 271 404 336 598 37 110 23 132
-19 31 -79 -193 -210 -425 -334 -594 -70 -96 -75 -91 -46 46 52 253 225 594
360 710 31 26 73 62 93 80 l36 32 18 -41 c10 -23 25 -82 33 -132z m-1441 23
c199 -64 284 -109 400 -210 118 -102 171 -168 227 -281 37 -75 111 -278 100
-277 -4 0 -29 27 -57 60 -71 86 -297 303 -380 365 -73 54 -170 107 -186 102
-5 -2 46 -44 113 -94 158 -118 526 -472 507 -488 -2 -2 -51 8 -109 22 -129 31
-229 87 -363 203 -114 99 -182 172 -248 268 -62 87 -83 140 -103 252 -8 46
-18 92 -21 102 -5 12 -3 16 6 13 8 -2 59 -19 114 -37z m1982 -26 c-3 -10 -19
-56 -35 -103 -58 -165 -82 -341 -82 -585 1 -144 5 -226 26 -437 l6 -67 -43
-11 c-198 -49 -537 -203 -746 -339 -51 -33 -93 -58 -93 -56 0 2 40 78 89 167
132 242 202 387 301 616 49 114 120 277 158 362 39 85 94 218 122 295 29 77
55 143 59 147 6 7 137 24 205 27 32 1 37 -2 33 -16z m-2793 -165 c51 -182 102
-412 151 -673 35 -183 35 -374 1 -509 -48 -188 -152 -361 -316 -526 -203 -204
-386 -330 -613 -422 -66 -26 -122 -47 -123 -45 -2 2 26 41 61 88 288 375 319
421 449 679 128 253 173 396 183 585 6 112 -9 231 -28 220 -5 -4 -9 -57 -9
-120 0 -235 -34 -367 -160 -620 -140 -282 -171 -330 -458 -709 -29 -39 -55
-72 -58 -75 -7 -7 2 90 22 249 22 172 59 332 130 561 149 484 297 767 574
1100 61 74 126 157 143 186 18 29 35 53 38 53 4 0 9 -10 13 -22z m6046 -194
c302 -43 512 -117 750 -266 138 -87 238 -161 485 -359 205 -164 610 -472 718
-546 88 -61 63 -103 -135 -220 -153 -90 -213 -106 -448 -119 -138 -7 -447 9
-610 32 -127 17 -378 82 -486 124 -119 47 -383 185 -520 271 -208 130 -309
212 -497 403 -199 202 -262 278 -312 381 -60 123 -63 122 89 44 74 -38 221
-107 328 -153 106 -46 252 -111 323 -144 72 -33 234 -96 360 -140 127 -44 298
-106 380 -137 449 -171 936 -326 813 -259 -82 44 -765 304 -1153 439 -254 88
-274 96 -443 175 -74 33 -204 91 -290 126 -175 73 -432 194 -432 203 0 9 238
84 385 122 66 17 161 35 210 39 117 10 352 2 485 -16z m-8498 -515 c95 -50
229 -118 298 -151 425 -204 547 -275 674 -390 123 -112 264 -316 345 -503 38
-85 76 -252 95 -418 l6 -48 -43 30 c-23 17 -89 72 -147 122 -58 50 -157 134
-220 186 -63 53 -212 191 -330 308 -401 394 -576 555 -550 505 21 -42 685
-693 835 -820 312 -264 371 -312 398 -328 40 -24 33 -32 -26 -32 -78 0 -155
16 -314 66 -238 75 -466 202 -695 387 -145 117 -273 275 -387 479 -132 237
-171 343 -171 467 0 113 15 203 37 219 9 6 18 12 20 12 1 0 80 -41 175 -91z
m5179 -416 c6 -32 12 -74 13 -93 1 -34 0 -36 -94 -83 -168 -84 -498 -206 -656
-243 -83 -19 -184 -32 -184 -24 0 14 176 159 269 221 113 75 214 129 356 190
88 37 239 86 272 88 6 1 17 -25 24 -56z m-2248 -117 c29 -18 72 -52 97 -74
l45 -41 -50 -43 c-64 -54 -90 -81 -142 -143 -23 -27 -45 -46 -49 -42 -4 3 -1
59 5 124 7 65 15 148 18 186 3 37 10 67 15 67 5 0 32 -15 61 -34z m526 -37
c-6 -19 -14 -164 -19 -324 -8 -311 -17 -375 -90 -666 -66 -262 -186 -548 -308
-738 -48 -74 -48 -73 -55 84 -13 271 67 868 158 1190 15 50 28 101 31 115 5
24 4 23 -25 -9 -58 -66 -123 -303 -186 -681 -19 -118 -37 -222 -40 -230 -23
-80 -50 -528 -36 -592 5 -20 5 -41 1 -47 -8 -13 -47 174 -90 429 -16 96 -41
236 -55 310 -53 278 -30 466 84 695 103 205 213 316 406 410 97 48 225 98 232
91 2 -1 -2 -18 -8 -37z m1755 -45 c3 -26 6 -68 6 -95 0 -46 -1 -48 -62 -95
-73 -55 -158 -97 -243 -119 -59 -16 -398 -34 -625 -34 l-95 0 93 20 c233 49
742 249 872 343 19 14 38 25 41 26 4 0 9 -21 13 -46z m-354 -389 c0 -2 -28
-23 -62 -46 -35 -24 -134 -96 -222 -162 -87 -66 -255 -186 -373 -268 -199
-139 -292 -208 -468 -348 -107 -86 -315 -261 -360 -302 -22 -21 -41 -36 -43
-34 -2 2 16 30 40 62 79 103 322 463 483 714 180 281 228 355 235 362 4 5 17
4 29 -3 15 -7 102 -11 269 -11 198 1 267 5 347 19 117 22 125 23 125 17z m637
-196 c43 -6 81 -13 86 -16 4 -2 -2 -18 -13 -34 -12 -16 -36 -61 -55 -101 -55
-120 -106 -189 -237 -319 -236 -236 -602 -468 -858 -544 l-25 -8 20 24 c89
105 268 296 329 352 160 144 549 447 575 447 6 0 11 5 11 10 0 51 -215 -76
-463 -273 -172 -136 -364 -334 -456 -470 -18 -27 -35 -46 -37 -44 -9 8 28 163
66 279 61 185 125 284 284 443 117 117 212 171 381 220 143 41 264 52 392 34z
m1214 -390 c398 -40 731 -184 1046 -451 90 -76 232 -232 341 -374 l71 -91 -77
-7 c-42 -3 -138 -15 -212 -26 -74 -11 -205 -25 -290 -32 -190 -13 -616 -4
-790 16 -127 16 -319 63 -443 110 -97 36 -315 150 -413 216 -87 57 -243 180
-244 192 0 14 231 23 565 22 391 0 527 -11 874 -69 113 -19 206 -33 208 -31 2
1 -54 15 -124 30 -71 15 -195 43 -278 61 -85 20 -221 41 -315 51 -218 21 -712
30 -849 15 -57 -6 -106 -10 -108 -7 -4 4 195 156 275 208 183 121 349 168 613
177 26 0 93 -4 150 -10z m-4241 -200 c47 -174 62 -416 36 -569 -47 -273 -243
-454 -647 -595 -116 -40 -241 -77 -246 -71 -2 2 21 22 52 45 89 67 184 161
246 242 111 146 399 606 399 636 -1 29 -57 -42 -190 -239 -143 -212 -258 -357
-331 -421 -71 -62 -323 -231 -327 -219 -3 11 83 203 146 322 112 213 286 465
398 576 103 101 412 333 446 334 4 0 12 -19 18 -41z m-2948 -139 c281 -62 499
-173 679 -347 213 -205 340 -462 339 -687 -1 -81 -36 -306 -51 -320 -3 -3 -20
33 -39 82 -78 208 -263 533 -408 716 -119 151 -142 174 -69 71 98 -139 192
-296 265 -440 119 -237 202 -429 190 -441 -9 -8 -197 94 -280 151 -127 89
-301 269 -375 390 -122 200 -243 463 -308 672 -21 65 -44 130 -51 146 -18 34
-13 34 108 7z m5166 -520 c293 -41 449 -101 654 -252 211 -157 270 -224 426
-479 38 -64 81 -138 95 -165 l25 -49 -187 1 c-204 2 -224 5 -376 68 -121 51
-267 133 -356 203 -41 31 -111 83 -157 116 -50 35 -118 98 -173 160 -81 90
-100 119 -161 245 -38 79 -67 146 -64 149 6 7 185 -97 336 -195 230 -149 394
-274 590 -450 45 -41 84 -71 88 -68 3 3 -12 31 -33 62 -103 150 -452 414 -810
613 -129 72 -127 72 103 41z m-1045 -15 c106 -27 179 -57 249 -102 l47 -30
-57 -18 c-88 -27 -235 -95 -366 -169 -143 -80 -203 -96 -375 -99 -103 -2 -136
2 -183 18 -32 10 -58 22 -58 26 0 3 39 26 88 49 87 42 250 99 460 160 61 18
112 36 112 39 0 16 -148 -3 -300 -40 -225 -54 -244 -58 -247 -55 -5 4 119 103
177 143 157 106 270 126 453 78z m-828 -511 c22 -8 67 -18 100 -22 l60 -7 -69
-38 c-85 -47 -323 -203 -431 -284 -44 -33 -86 -63 -94 -68 -22 -13 46 73 212
268 109 128 156 176 167 171 8 -3 33 -12 55 -20z m-1800 -196 c53 -80 84 -169
101 -284 14 -93 14 -113 1 -177 -16 -79 -54 -187 -66 -187 -3 0 -30 49 -59
108 l-52 108 16 111 c10 65 13 124 9 140 -7 23 -11 10 -29 -77 -12 -58 -25
-104 -29 -103 -4 2 -28 32 -53 69 l-45 66 20 52 c12 28 39 74 61 101 22 28 50
67 62 87 13 21 24 38 25 38 2 0 18 -24 38 -52z m-429 -205 c-8 -106 -20 -164
-30 -143 -3 8 -12 37 -21 65 -12 42 -12 51 0 65 7 8 21 34 30 58 10 23 20 42
23 42 2 0 2 -39 -2 -87z m239 -167 c139 -214 203 -398 192 -556 -6 -98 -59
-258 -137 -415 -90 -184 -89 -183 -89 -35 0 69 4 195 9 280 8 128 7 176 -6
275 -9 66 -20 126 -24 134 -8 14 -18 -81 -46 -399 -20 -240 -38 -358 -75 -505
-17 -66 -32 -121 -34 -123 -7 -7 -86 137 -105 192 -31 87 -61 286 -62 411 0
107 2 119 50 276 88 286 123 440 138 603 l7 80 64 -68 c36 -38 89 -105 118
-150z m-1000 -71 c107 -15 197 -47 325 -117 88 -48 146 -93 215 -167 64 -68
68 -76 61 -114 -12 -61 -17 -62 -102 -9 -188 116 -370 200 -466 215 -67 10
-41 -8 80 -57 99 -40 354 -174 432 -227 23 -15 23 -17 10 -77 -7 -34 -17 -62
-22 -62 -46 0 -212 62 -326 122 -252 133 -361 233 -445 408 l-54 112 96 -6
c53 -4 141 -13 196 -21z m3111 -56 c109 -15 247 -51 335 -88 86 -36 297 -154
426 -238 83 -54 243 -199 243 -220 0 -6 -17 -13 -38 -15 -21 -3 -89 -24 -152
-47 -231 -85 -416 -120 -757 -141 -92 -6 -258 -22 -368 -36 -243 -31 -633 -43
-824 -25 -127 12 -261 37 -261 50 0 10 259 143 380 194 229 97 397 139 632
158 242 20 610 -11 796 -66 30 -9 56 -14 59 -12 2 3 -24 19 -59 35 -65 31
-186 65 -273 77 -27 4 -75 14 -105 21 -82 21 -332 28 -510 15 -246 -19 -440
-63 -665 -153 -55 -22 -122 -49 -150 -60 l-50 -19 35 36 c138 145 535 403 716
465 208 72 405 95 590 69z m-1879 -791 c-3 -8 -6 -5 -6 6 -1 11 2 17 5 13 3
-3 4 -12 1 -19z m273 -95 c39 -15 69 -30 68 -33 -2 -3 -46 -44 -98 -90 -52
-46 -135 -124 -184 -174 -54 -56 -86 -82 -82 -68 4 12 20 70 36 128 27 100 31
108 87 167 53 57 94 96 101 97 1 0 34 -12 72 -27z m202 -59 c40 -8 108 -18
152 -22 l78 -7 -70 -52 c-115 -86 -312 -218 -397 -265 -90 -51 -224 -110 -238
-105 -14 4 83 143 166 238 60 68 223 229 233 229 2 0 36 -7 76 -16z m462 -56
c-30 -60 -101 -152 -156 -204 -102 -97 -156 -122 -418 -196 -299 -83 -402
-110 -408 -104 -3 3 0 6 7 6 22 0 210 98 297 155 125 81 380 266 449 324 l59
51 93 0 94 0 -17 -32z m-1128 -434 c-46 -137 -120 -352 -165 -479 -46 -126
-96 -269 -113 -317 -18 -49 -33 -86 -35 -84 -2 1 14 104 36 227 22 123 44 278
51 344 6 66 13 143 16 170 4 45 14 61 82 146 182 225 204 251 208 246 2 -2
-34 -116 -80 -253z m-1121 11 c129 -62 285 -173 388 -276 53 -54 97 -102 97
-107 0 -6 -15 -28 -32 -50 -18 -22 -53 -65 -77 -96 l-45 -57 -20 33 c-70 115
-211 278 -240 278 -3 0 15 -26 41 -57 55 -69 120 -168 157 -240 l26 -53 -27
-38 c-39 -52 -147 -180 -154 -181 -3 -1 -13 25 -23 57 -10 31 -35 98 -56 147
-94 221 -140 388 -155 560 -4 44 -12 91 -16 104 -9 22 -8 23 28 17 21 -4 70
-22 108 -41z m840 -252 c-14 -114 -138 -730 -150 -741 -3 -3 -5 30 -5 74 -1
101 -20 208 -57 315 l-29 85 78 105 c44 57 97 130 119 162 22 31 42 57 45 57
3 0 2 -26 -1 -57z m-237 -375 c46 -161 51 -296 16 -518 -18 -116 -49 -239 -63
-253 -8 -8 -11 6 -11 48 0 154 -43 376 -99 518 l-31 77 68 86 c37 47 71 92 77
100 5 8 13 14 16 14 3 0 16 -33 27 -72z m-164 -412 c15 -88 19 -190 17 -386
l-2 -95 -30 35 c-56 66 -191 308 -225 403 -13 38 -13 39 29 93 23 31 55 72 70
92 16 20 40 50 55 65 l27 28 22 -71 c12 -40 29 -113 37 -164z m745 -646 c81
-9 189 -32 214 -47 4 -3 -17 -20 -48 -38 -78 -47 -202 -147 -319 -255 -106
-99 -154 -127 -304 -174 -100 -31 -174 -41 -238 -31 l-49 7 45 39 c82 70 193
146 360 244 169 99 193 115 187 122 -9 8 -179 -60 -258 -103 -98 -54 -242
-125 -246 -120 -7 7 106 146 173 213 130 132 250 167 483 143z"/>
</g>
</svg>
